<svg width="35" height="36" viewBox="0 0 35 36" fill="none" xmlns="http://www.w3.org/2000/svg">
<path d="M20.8678 35.0872C19.3542 35.0872 18.8496 33.8828 18.3613 32.2389L15.7734 23.6452C15.4642 22.5547 15.513 22.0013 16.1478 21.334L32.7656 3.41406C32.9609 3.20247 32.9447 2.95833 32.7819 2.79557C32.6191 2.64909 32.375 2.61654 32.1634 2.81185L14.3086 19.4948C13.6087 20.1458 13.0228 20.1784 11.9811 19.8529L3.19206 17.1836C1.62956 16.7116 0.490234 16.207 0.490234 14.7096C0.490234 13.5215 1.54818 12.6914 2.91536 12.1706L30.9102 1.44466C31.6589 1.15169 32.3262 0.988933 32.8796 0.988933C33.9375 0.988933 34.5885 1.63998 34.5885 2.69792C34.5885 3.2513 34.4258 3.91862 34.1328 4.66732L23.472 32.5156C22.8698 34.0781 22.0397 35.0872 20.8678 35.0872Z" fill="#007AFF"/>
</svg>
