<svg width="12" height="12" viewBox="0 0 12 12" fill="none" xmlns="http://www.w3.org/2000/svg">
    <path
        d="M5.81461 1.12064C5.95758 0.810696 6.39809 0.810697 6.54106 1.12065L7.8333 3.92223C7.89157 4.04855 8.01129 4.13553 8.14943 4.15191L11.2132 4.51517C11.5522 4.55536 11.6883 4.97431 11.4377 5.20606L9.17257 7.3008C9.07043 7.39525 9.0247 7.53598 9.05182 7.67242L9.6531 10.6985C9.71962 11.0333 9.36324 11.2922 9.06539 11.1255L6.37321 9.61854C6.25182 9.55059 6.10385 9.55059 5.98246 9.61854L3.29028 11.1255C2.99244 11.2922 2.63605 11.0333 2.70258 10.6985L3.30386 7.67242C3.33097 7.53598 3.28524 7.39525 3.18311 7.30079L0.917968 5.20606C0.667368 4.97431 0.803496 4.55536 1.14245 4.51517L4.20624 4.15191C4.34439 4.13553 4.4641 4.04855 4.52237 3.92223L5.81461 1.12064Z"
        fill="#FF9500" />
</svg>