<svg width="119" height="112" viewBox="0 0 119 112" fill="none" xmlns="http://www.w3.org/2000/svg">
    <g filter="url(#filter0_i_8230_13732)">
        <path
            d="M56.6667 112C61.2 112 65.7333 111.44 69.7 110.32C67.4333 107.52 65.1667 104.16 64.0333 100.24C61.7667 100.8 58.9333 100.8 56.6667 100.8C31.7333 100.8 11.3333 80.64 11.3333 56C11.3333 31.36 31.7333 11.2 56.6667 11.2C61.2 11.2 65.1667 11.76 69.1333 12.88L78.2 3.92C71.4 1.68 64.0333 0 56.6667 0C25.5 0 0 25.2 0 56C0 86.8 25.5 112 56.6667 112ZM25.5 53.2L33.4333 45.36L51 62.72L99.7333 14.56L107.667 22.4L51 78.4L25.5 53.2ZM96.3333 67.2L89.1933 82.6L73.6667 89.6L89.1933 96.656L96.3333 112L103.417 96.656L119 89.6L103.417 82.6L96.3333 67.2Z"
            fill="#2DD4BF" />
    </g>
    <defs>
        <filter id="filter0_i_8230_13732" x="0" y="0" width="120" height="114" filterUnits="userSpaceOnUse"
            color-interpolation-filters="sRGB">
            <feFlood flood-opacity="0" result="BackgroundImageFix" />
            <feBlend mode="normal" in="SourceGraphic" in2="BackgroundImageFix" result="shape" />
            <feColorMatrix in="SourceAlpha" type="matrix" values="0 0 0 0 0 0 0 0 0 0 0 0 0 0 0 0 0 0 127 0"
                result="hardAlpha" />
            <feOffset dx="1" dy="2" />
            <feGaussianBlur stdDeviation="1" />
            <feComposite in2="hardAlpha" operator="arithmetic" k2="-1" k3="1" />
            <feColorMatrix type="matrix" values="0 0 0 0 0 0 0 0 0 0 0 0 0 0 0 0 0 0 0.08 0" />
            <feBlend mode="normal" in2="shape" result="effect1_innerShadow_8230_13732" />
        </filter>
    </defs>
</svg>